# xmcd
#
# Track frame offsets:
#	150
#	11331
#	25850
#	38331
#	51279
#	65112
#	81945
#	93487
#	112728
#	125573
#	137430
#	150485
#	162955
#	177116
#	190511
#	203441
#	215133
#
# Disc length: 3058 seconds
#
# Revision: 0
# Processed by: cddbd v1.5.2PL0 Copyright (c) Steve Scherf et al.
# Submitted via: dBpowerAMP V4.0
#
DISCID=d30bf011
DTITLE=Various Artist - And This Is Free
DYEAR=2008
DGENRE=Blues
TTITLE0=Pet Cream Man - J.B. Hutto and His Hawks
TTITLE1=Dark Road - Floyd Jones
TTITLE2=Rollin' And Tumblin' - Baby Face Leroy Trio
TTITLE3=Cryin' Shame - Snooky Pryor
TTITLE4=Prowling Night Hawk - Robert Nighthawk
TTITLE5=John Henry - Blind Arvella Gray
TTITLE6=Money Taking Woman - Johnny Young
TTITLE7=Maxwell Street Alley Blues - Big John Wrencher
TTITLE8=The Spasm - Daddy Stvepipe and Mississippi Sarah
TTITLE9=Worried Man Blues - Johnny Williams
TTITLE10=Hard Luck John - John Lee Granderson
TTITLE11=Against My Will - John Henry Barbee
TTITLE12=Christmas Time Blues - Boll Weevil
TTITLE13=Rollin' And Tumblin', Pt.2 - Baby Face Leroy Trio
TTITLE14=Maxwell Street Blues - Papa Charlie Jackson
TTITLE15=Little Store Blues - Jimmy Rogers and Little Walter
TTITLE16=Fourteenth St. Blues - Blind Percy and His Blind Band
EXTD=
EXTT0=
EXTT1=
EXTT2=
EXTT3=
EXTT4=
EXTT5=
EXTT6=
EXTT7=
EXTT8=
EXTT9=
EXTT10=
EXTT11=
EXTT12=
EXTT13=
EXTT14=
EXTT15=
EXTT16=
PLAYORDER=
